<svg width="20" height="19" viewBox="0 0 20 19" fill="none" xmlns="http://www.w3.org/2000/svg">
<path opacity="0.8" d="M11.254 18.8058C14.196 18.1935 18 15.9965 18 10.3151C18 5.14501 14.3545 1.70223 11.7332 0.120312C11.1515 -0.23072 10.4706 0.230924 10.4706 0.929374V2.71588C10.4706 4.12464 9.90005 6.69608 8.31465 7.76564C7.50524 8.31171 6.63108 7.49441 6.53271 6.49752L6.45192 5.67891C6.35802 4.72726 5.42439 4.14955 4.69173 4.72977C3.3755 5.77212 2 7.5974 2 10.3151C2 17.263 6.97778 19 9.46664 19C9.61139 19 9.76358 18.9955 9.92198 18.986C8.69299 18.877 6.70588 18.0854 6.70588 15.5257C6.70588 13.5235 8.11301 12.1689 9.18212 11.5105C9.46965 11.3333 9.80621 11.5633 9.80621 11.9104V12.486C9.80621 12.9266 9.97035 13.6153 10.361 14.0867C10.8032 14.6202 11.4521 14.0613 11.5045 13.3597C11.521 13.1384 11.7354 12.9973 11.9201 13.1094C12.5237 13.4756 13.2941 14.2578 13.2941 15.5257C13.2941 17.5267 12.2315 18.4472 11.254 18.8058Z" fill="white"/>
</svg>
